<?xml version="1.0" encoding="utf-8"?>
<!-- Generator: Adobe Illustrator 21.1.0, SVG Export Plug-In . SVG Version: 6.00 Build 0)  -->
<svg version="1.1" id="Layer_1" xmlns="http://www.w3.org/2000/svg" xmlns:xlink="http://www.w3.org/1999/xlink" x="0px" y="0px"
	 viewBox="0 0 178 90" style="enable-background:new 0 0 178 90;" xml:space="preserve">
<g>
	<path d="M50.3,27.3c0,6.6-5.3,11.9-11.9,11.9c-6.6,0-11.9-5.3-11.9-11.9c0-6.6,5.3-11.9,11.9-11.9C45,15.3,50.3,20.7,50.3,27.3"/>
	<path d="M3.6,15.4c6.5,0,11.8,5.3,11.8,11.8c0,6.5-5.3,11.8-11.8,11.8V15.4z"/>
	<path d="M85,27.3c0-6.6-5.3-11.9-11.9-11.9c-6.6,0-11.9,5.3-11.9,11.9c0,6.6,5.3,11.9,11.9,11.9L85,27.3z"/>
</g>
<g>
	<path d="M21.2,74.2L6.4,54.1v20.2H3.3V48.9h3.2l14.5,19.7V48.9h3.1v25.3H21.2z"/>
	<path d="M48.2,74.2l-2.2-5.6H33.3l-2.2,5.6h-3.6l10.2-25.3h3.9l10.2,25.3H48.2z M39.6,52.2l-5.4,13.6H45L39.6,52.2z"/>
	<path d="M58.8,74.2V51.7h-8v-2.8H70v2.8h-8v22.5H58.8z"/>
	<path d="M72.1,61.6c0-7.5,5-13.1,12.5-13.1c7.5,0,12.5,5.6,12.5,13.1s-5.1,13.1-12.5,13.1C77.1,74.7,72.1,69.1,72.1,61.6z
		 M93.9,61.6c0-5.9-3.6-10.3-9.3-10.3c-5.7,0-9.3,4.4-9.3,10.3c0,5.9,3.6,10.3,9.3,10.3C90.3,71.9,93.9,67.5,93.9,61.6z"/>
	<path d="M101.1,61.6c0-7.5,5-13.1,12.5-13.1c7.5,0,12.5,5.6,12.5,13.1s-5.1,13.1-12.5,13.1C106.1,74.7,101.1,69.1,101.1,61.6z
		 M122.9,61.6c0-5.9-3.6-10.3-9.3-10.3c-5.7,0-9.3,4.4-9.3,10.3c0,5.9,3.6,10.3,9.3,10.3C119.3,71.9,122.9,67.5,122.9,61.6z"/>
	<path d="M145.7,74.2l-6.4-10h-5v10h-3.1V48.9h10.2c4.6,0,7.9,3,7.9,7.6c0,4.5-3.1,7-6.6,7.3l6.8,10.3H145.7z M145.9,56.6
		c0-2.8-2-4.8-5-4.8h-6.6v9.7h6.6C143.9,61.4,145.9,59.4,145.9,56.6z"/>
	<path d="M172.2,74.2l-2.2-5.6h-12.6l-2.2,5.6h-3.6l10.2-25.3h3.9l10.2,25.3H172.2z M163.7,52.2l-5.4,13.6H169L163.7,52.2z"/>
</g>
</svg>
